<svg width="17" height="17" viewBox="0 0 17 17" fill="none" xmlns="http://www.w3.org/2000/svg">
<path d="M7.92533 13.0545H6.386C5.63343 13.0545 5.0177 13.6702 5.0177 14.4228V14.5938H4.33355C4.05305 14.5938 3.82043 14.8264 3.82043 15.1069C3.82043 15.3874 4.05305 15.6201 4.33355 15.6201H12.5433C12.8238 15.6201 13.0565 15.3874 13.0565 15.1069C13.0565 14.8264 12.8238 14.5938 12.5433 14.5938H11.8592V14.4228C11.8592 13.6702 11.2435 13.0545 10.4909 13.0545H8.95156V11.4878C8.78052 11.5083 8.60948 11.5152 8.43844 11.5152C8.26741 11.5152 8.09637 11.5083 7.92533 11.4878V13.0545Z" fill="#FFCA8B"/>
<path d="M12.8717 8.53221C13.3233 8.36118 13.7201 8.08068 14.0348 7.76597C14.671 7.06129 15.0884 6.21979 15.0884 5.23461C15.0884 4.24944 14.3153 3.47635 13.3301 3.47635H12.947C12.5023 2.56643 11.5719 1.93701 10.4909 1.93701H6.386C5.30504 1.93701 4.3746 2.56643 3.9299 3.47635H3.54678C2.5616 3.47635 1.78851 4.24944 1.78851 5.23461C1.78851 6.21979 2.20584 7.06129 2.8421 7.76597C3.15681 8.08068 3.55362 8.36118 4.00516 8.53221C4.71667 10.2836 6.42705 11.5151 8.43845 11.5151C10.4498 11.5151 12.1602 10.2836 12.8717 8.53221ZM10.3814 6.34978L9.95726 6.86973C9.88884 6.94499 9.84095 7.0955 9.8478 7.19812L9.88884 7.86859C9.91621 8.27908 9.62203 8.49116 9.2389 8.34065L8.61633 8.09436C8.52055 8.06015 8.35635 8.06015 8.26057 8.09436L7.63799 8.34065C7.25487 8.49116 6.96068 8.27908 6.98805 7.86859L7.0291 7.19812C7.03594 7.0955 6.98805 6.94499 6.91963 6.86973L6.49546 6.34978C6.22864 6.03507 6.34495 5.68615 6.74176 5.58353L7.3917 5.41933C7.49432 5.39197 7.61747 5.29619 7.6722 5.20725L8.0348 4.64624C8.26057 4.29733 8.61633 4.29733 8.8421 4.64624L9.20469 5.20725C9.25943 5.29619 9.38257 5.39197 9.4852 5.41933L10.1351 5.58353C10.5319 5.68615 10.6483 6.03507 10.3814 6.34978Z" fill="#FFCA8B"/>
</svg>
