<svg width="20" height="20" viewBox="0 0 20 20" fill="none" xmlns="http://www.w3.org/2000/svg">
<g id="vuesax/bold/grammerly">
<g id="grammerly">
<path id="Vector" d="M15.6889 4.20782C12.4789 0.997786 7.2657 0.997786 4.05567 4.20782C0.788167 7.47531 0.845635 12.8035 4.21986 16.0053C7.33958 18.9526 12.3968 18.9526 15.5165 16.0053C18.899 12.8035 18.9564 7.47531 15.6889 4.20782ZM13.4477 13.8051C12.4625 14.741 11.1653 15.2089 9.8682 15.2089C8.57105 15.2089 7.27391 14.741 6.28873 13.8051C6.04244 13.567 6.03423 13.1811 6.2641 12.9348C6.50218 12.6885 6.88804 12.6803 7.13434 12.9102C8.63673 14.3305 11.0915 14.3387 12.6021 12.9102C12.8484 12.6803 13.2424 12.6885 13.4723 12.9348C13.7104 13.1811 13.694 13.567 13.4477 13.8051Z" fill="#70FF00"/>
</g>
</g>
</svg>
