<svg width="24" height="24" viewBox="0 0 24 24" fill="none" xmlns="http://www.w3.org/2000/svg">
<g clip-path="url(#clip0_263_2413)">
<path d="M12 0C9.62663 0 7.30655 0.703788 5.33316 2.02236C3.35977 3.34094 1.8217 5.21509 0.913451 7.4078C0.00519943 9.60051 -0.232441 12.0133 0.230582 14.3411C0.693605 16.6689 1.83649 18.8071 3.51472 20.4853C5.19295 22.1635 7.33115 23.3064 9.65892 23.7694C11.9867 24.2324 14.3995 23.9948 16.5922 23.0866C18.7849 22.1783 20.6591 20.6402 21.9776 18.6668C23.2962 16.6935 24 14.3734 24 12C23.9974 8.81821 22.7322 5.76751 20.4824 3.51764C18.2325 1.26778 15.1818 0.00264818 12 0ZM13 18C13 18.2652 12.8946 18.5196 12.7071 18.7071C12.5196 18.8946 12.2652 19 12 19C11.7348 19 11.4804 18.8946 11.2929 18.7071C11.1054 18.5196 11 18.2652 11 18V11H10C9.73479 11 9.48044 10.8946 9.2929 10.7071C9.10536 10.5196 9.00001 10.2652 9.00001 10C9.00001 9.73478 9.10536 9.48043 9.2929 9.29289C9.48044 9.10536 9.73479 9 10 9H12C12.2652 9 12.5196 9.10536 12.7071 9.29289C12.8946 9.48043 13 9.73478 13 10V18ZM12.02 7C11.7548 7.00133 11.4999 6.89724 11.3114 6.71064C11.123 6.52404 11.0163 6.27022 11.015 6.005C11.0137 5.73978 11.1178 5.4849 11.3044 5.29643C11.491 5.10795 11.7448 5.00133 12.01 5H12.02C12.2852 5 12.5396 5.10536 12.7271 5.29289C12.9146 5.48043 13.02 5.73478 13.02 6C13.02 6.26522 12.9146 6.51957 12.7271 6.70711C12.5396 6.89464 12.2852 7 12.02 7Z" fill="#289BF6"/>
</g>
<defs>
<clipPath id="clip0_263_2413">
<rect width="24" height="24" fill="white"/>
</clipPath>
</defs>
</svg>
