<svg width="20" height="20" viewBox="0 0 20 20" fill="none" xmlns="http://www.w3.org/2000/svg">
<rect x="0.4" y="0.4" width="19.2" height="19.2" rx="9.6" fill="#50AF95"/>
<rect x="0.4" y="0.4" width="19.2" height="19.2" rx="9.6" stroke="white" stroke-width="0.8"/>
<g clip-path="url(#clip0_300_20529)">
<path fill-rule="evenodd" clip-rule="evenodd" d="M3.66194 2.08545L0.0152366 9.74535C0.0013598 9.77384 -0.00303765 9.80602 0.00268727 9.83719C0.0084122 9.86836 0.0239592 9.89688 0.0470546 9.91858L9.89592 19.3562C9.92389 19.383 9.96116 19.398 9.99992 19.398C10.0387 19.398 10.0759 19.383 10.1039 19.3562L19.9528 9.91917C19.9759 9.89747 19.9914 9.86895 19.9971 9.83778C20.0029 9.80661 19.9985 9.77443 19.9846 9.74594L16.3379 2.08604C16.3261 2.06031 16.3072 2.03852 16.2834 2.02326C16.2596 2.00801 16.2318 1.99994 16.2036 2.00001H3.79746C3.76904 1.99966 3.74112 2.00754 3.71707 2.0227C3.69302 2.03786 3.67388 2.05965 3.66194 2.08545V2.08545V2.08545Z" fill="#50AF95"/>
<path fill-rule="evenodd" clip-rule="evenodd" d="M11.2654 10.5319C11.1947 10.5372 10.8294 10.559 10.0145 10.559C9.36637 10.559 8.90619 10.5395 8.74474 10.5319C6.23995 10.4217 4.37035 9.98566 4.37035 9.46361C4.37035 8.94155 6.23995 8.50612 8.74474 8.39417V10.0976C8.90854 10.1094 9.37756 10.1371 10.0257 10.1371C10.8035 10.1371 11.193 10.1047 11.2631 10.0982V8.39534C13.7626 8.50671 15.628 8.94273 15.628 9.46361C15.628 9.98448 13.7632 10.4205 11.2631 10.5313L11.2654 10.5319ZM11.2654 8.21917V6.69485H14.7536V4.37036H5.25654V6.69485H8.74415V8.21858C5.9094 8.3488 3.77759 8.91033 3.77759 9.58322C3.77759 10.2561 5.9094 10.8171 8.74415 10.9479V15.8325H11.2648V10.9461C14.0931 10.8159 16.2214 10.2549 16.2214 9.58263C16.2214 8.91033 14.0949 8.34939 11.2648 8.21858L11.2654 8.21917Z" fill="white"/>
</g>
<defs>
<clipPath id="clip0_300_20529">
<rect width="20" height="17.398" fill="white" transform="translate(0 2)"/>
</clipPath>
</defs>
</svg>
